<svg width="26" height="25" viewBox="0 0 26 25" fill="none" xmlns="http://www.w3.org/2000/svg">
<path d="M8.6168 7.56324L1.17347 8.64241L1.04164 8.66924C0.842067 8.72222 0.660132 8.82722 0.514412 8.97351C0.368692 9.1198 0.264408 9.30215 0.21221 9.50192C0.160012 9.7017 0.16177 9.91175 0.217303 10.1106C0.272837 10.3095 0.380157 10.4901 0.528304 10.6339L5.92064 15.8827L4.64897 23.2969L4.6338 23.4252C4.62159 23.6317 4.66445 23.8376 4.758 24.022C4.85154 24.2064 4.99242 24.3626 5.16619 24.4747C5.33997 24.5867 5.54041 24.6506 5.74698 24.6597C5.95355 24.6688 6.15883 24.6229 6.3418 24.5266L12.9988 21.0266L19.6406 24.5266L19.7573 24.5802C19.9499 24.6561 20.1592 24.6793 20.3637 24.6476C20.5682 24.6159 20.7606 24.5303 20.9212 24.3997C21.0817 24.2691 21.2046 24.0981 21.2773 23.9043C21.3499 23.7105 21.3697 23.5009 21.3346 23.2969L20.0618 15.8827L25.4565 10.6327L25.5475 10.5336C25.6775 10.3735 25.7627 10.1818 25.7945 9.978C25.8263 9.77424 25.8035 9.56568 25.7284 9.3736C25.6533 9.18151 25.5287 9.01275 25.3672 8.88451C25.2057 8.75627 25.0131 8.67314 24.809 8.64358L17.3656 7.56324L14.0383 0.81991C13.942 0.624533 13.793 0.46001 13.608 0.344965C13.4231 0.229919 13.2096 0.168945 12.9918 0.168945C12.774 0.168945 12.5605 0.229919 12.3756 0.344965C12.1906 0.46001 12.0416 0.624533 11.9453 0.81991L8.6168 7.56324Z" fill="#132A1B"/>
</svg>
