<svg width="20" height="20" viewBox="0 0 20 20" fill="none" xmlns="http://www.w3.org/2000/svg">
<g clip-path="url(#clip0_13_39)">
<path d="M18.3333 9.99999C18.3333 11.0943 18.1178 12.178 17.699 13.189C17.2802 14.2001 16.6664 15.1187 15.8925 15.8925C15.1187 16.6664 14.2001 17.2802 13.189 17.699C12.178 18.1178 11.0943 18.3333 9.99999 18.3333C8.90564 18.3333 7.82201 18.1178 6.81096 17.699C5.79991 17.2802 4.88125 16.6664 4.10743 15.8925C3.33361 15.1187 2.71978 14.2001 2.30099 13.189C1.8822 12.178 1.66666 11.0943 1.66666 9.99999C1.66666 8.90564 1.8822 7.82201 2.30099 6.81096C2.71978 5.79991 3.33361 4.88125 4.10743 4.10743C4.88126 3.33361 5.79992 2.71978 6.81096 2.30099C7.82201 1.8822 8.90564 1.66666 9.99999 1.66666C11.0943 1.66666 12.178 1.8822 13.189 2.30099C14.2001 2.71978 15.1187 3.33361 15.8925 4.10743C16.6664 4.88126 17.2802 5.79992 17.699 6.81096C18.1178 7.82201 18.3333 8.90564 18.3333 9.99999L18.3333 9.99999Z" stroke="white" stroke-width="1.5"/>
<path d="M13.3333 9.99999C13.3333 11.0943 13.2471 12.178 13.0796 13.189C12.9121 14.2001 12.6665 15.1187 12.357 15.8925C12.0475 16.6664 11.68 17.2802 11.2756 17.699C10.8712 18.1178 10.4377 18.3333 9.99999 18.3333C9.56225 18.3333 9.1288 18.1178 8.72438 17.699C8.31996 17.2802 7.9525 16.6664 7.64297 15.8925C7.33344 15.1187 7.08791 14.2001 6.92039 13.189C6.75288 12.178 6.66666 11.0943 6.66666 9.99999C6.66666 8.90564 6.75288 7.82201 6.92039 6.81096C7.08791 5.79991 7.33344 4.88125 7.64297 4.10743C7.9525 3.33361 8.31996 2.71978 8.72438 2.30099C9.1288 1.8822 9.56225 1.66666 9.99999 1.66666C10.4377 1.66666 10.8712 1.8822 11.2756 2.30099C11.68 2.71978 12.0475 3.33361 12.357 4.10743C12.6665 4.88126 12.9121 5.79992 13.0796 6.81096C13.2471 7.82201 13.3333 8.90564 13.3333 9.99999L13.3333 9.99999Z" stroke="white" stroke-width="1.5"/>
<path d="M1.66666 10H18.3333" stroke="white" stroke-width="1.5" stroke-linecap="round"/>
</g>
<defs>
<clipPath id="clip0_13_39">
<rect width="20" height="20" fill="white"/>
</clipPath>
</defs>
</svg>
