<svg width="44" height="44" viewBox="0 0 44 44" fill="none" xmlns="http://www.w3.org/2000/svg">
<rect width="44" height="44" rx="22" fill="white"/>
<g clip-path="url(#clip0_14_78)">
<path d="M18.9617 28.9109L19.426 28.3219L18.9617 28.9109ZM22 15.5006L21.4596 16.0207C21.601 16.1676 21.7961 16.2506 22 16.2506C22.2039 16.2506 22.399 16.1676 22.5404 16.0207L22 15.5006ZM25.0383 28.9109L25.5026 29.4999L25.0383 28.9109ZM19.426 28.3219C17.9104 27.1271 16.2531 25.9603 14.9383 24.4798C13.6492 23.0282 12.75 21.3345 12.75 19.1371H11.25C11.25 21.8026 12.3605 23.8361 13.8167 25.4758C15.2472 27.0866 17.0708 28.3752 18.4974 29.4999L19.426 28.3219ZM12.75 19.1371C12.75 16.9862 13.9654 15.1825 15.6244 14.4242C17.2361 13.6875 19.4017 13.8826 21.4596 16.0207L22.5404 14.9805C20.0985 12.4435 17.2641 12.0254 15.0008 13.06C12.7847 14.0729 11.25 16.425 11.25 19.1371H12.75ZM18.4974 29.4999C19.0097 29.9037 19.5595 30.3343 20.1168 30.6599C20.6739 30.9854 21.3096 31.25 22 31.25V29.75C21.6904 29.75 21.3261 29.6293 20.8736 29.3648C20.4213 29.1005 19.9521 28.7366 19.426 28.3219L18.4974 29.4999ZM25.5026 29.4999C26.9292 28.3752 28.7528 27.0866 30.1833 25.4758C31.6395 23.8361 32.75 21.8026 32.75 19.1371H31.25C31.25 21.3345 30.3508 23.0282 29.0617 24.4798C27.7469 25.9603 26.0896 27.1271 24.574 28.3219L25.5026 29.4999ZM32.75 19.1371C32.75 16.425 31.2153 14.0729 28.9992 13.06C26.7359 12.0254 23.9015 12.4435 21.4596 14.9805L22.5404 16.0207C24.5983 13.8826 26.7639 13.6875 28.3756 14.4242C30.0346 15.1825 31.25 16.9862 31.25 19.1371H32.75ZM24.574 28.3219C24.0479 28.7366 23.5787 29.1005 23.1264 29.3648C22.6739 29.6293 22.3096 29.75 22 29.75V31.25C22.6904 31.25 23.3261 30.9854 23.8832 30.6599C24.4405 30.3343 24.9903 29.9037 25.5026 29.4999L24.574 28.3219Z" fill="black"/>
</g>
<defs>
<clipPath id="clip0_14_78">
<rect width="22" height="22" fill="white" transform="translate(11 11)"/>
</clipPath>
</defs>
</svg>
