<svg width="20" height="21" viewBox="0 0 20 21" fill="none" xmlns="http://www.w3.org/2000/svg">
<path d="M5 7.25622C5 4.44533 7.23858 2.16666 10 2.16666C12.7614 2.16666 15 4.44533 15 7.25622C15 10.0451 13.4042 13.2994 10.9143 14.4632C10.3339 14.7345 9.66609 14.7345 9.08567 14.4632C6.59583 13.2994 5 10.0451 5 7.25622Z" stroke="white" stroke-width="1.5"/>
<path d="M11.6667 7.16667C11.6667 8.08714 10.9205 8.83333 10 8.83333C9.07954 8.83333 8.33334 8.08714 8.33334 7.16667C8.33334 6.24619 9.07954 5.5 10 5.5C10.9205 5.5 11.6667 6.24619 11.6667 7.16667Z" stroke="white" stroke-width="1.5"/>
<path d="M9.99999 17.7396L10.4939 18.304C10.6566 18.1616 10.75 17.9559 10.75 17.7396C10.75 17.5233 10.6566 17.3176 10.4939 17.1752L9.99999 17.7396ZM17.9329 12.4122C17.6082 12.1549 17.1365 12.2096 16.8793 12.5342C16.622 12.8589 16.6767 13.3306 17.0013 13.5878L17.9329 12.4122ZM2.99864 13.5878C3.3233 13.3306 3.37796 12.8589 3.12073 12.5342C2.86349 12.2096 2.39177 12.1549 2.06711 12.4122L2.99864 13.5878ZM8.74999 16.6458L9.24387 16.0814C9.0224 15.8876 8.70806 15.8413 8.44008 15.9629C8.17209 16.0845 7.99999 16.3516 7.99999 16.6458H8.74999ZM8.74999 18.8333H7.99999C7.99999 19.1276 8.17209 19.3947 8.44008 19.5163C8.70806 19.6379 9.0224 19.5916 9.24387 19.3978L8.74999 18.8333ZM12.0077 16.89C11.5956 16.9318 11.2954 17.2997 11.3371 17.7118C11.3789 18.1239 11.7468 18.4242 12.1589 18.3824L12.0077 16.89ZM8.79433 16.9542C6.85241 16.8392 5.17764 16.4529 4.01459 15.9254C3.43182 15.6611 3.01228 15.377 2.74871 15.1044C2.48851 14.8354 2.41666 14.619 2.41666 14.4583H0.916656C0.916656 15.1201 1.22904 15.6908 1.67051 16.1473C2.10859 16.6002 2.70813 16.9799 3.39502 17.2914C4.77129 17.9156 6.63819 18.3291 8.70565 18.4516L8.79433 16.9542ZM17.0013 13.5878C17.4641 13.9545 17.5833 14.2561 17.5833 14.4583H19.0833C19.0833 13.6129 18.579 12.9241 17.9329 12.4122L17.0013 13.5878ZM2.41666 14.4583C2.41666 14.2561 2.53587 13.9545 2.99864 13.5878L2.06711 12.4122C1.42097 12.9241 0.916656 13.6129 0.916656 14.4583H2.41666ZM10.4939 17.1752L9.24387 16.0814L8.25611 17.2103L9.50611 18.304L10.4939 17.1752ZM7.99999 16.6458V17.7029H9.49999V16.6458H7.99999ZM7.99999 17.7029V18.8333H9.49999V17.7029H7.99999ZM9.24387 19.3978L10.4939 18.304L9.50611 17.1752L8.25611 18.2689L9.24387 19.3978ZM17.5833 14.4583C17.5833 14.7621 17.2907 15.2771 16.2202 15.8135C15.2128 16.3183 13.7459 16.7139 12.0077 16.89L12.1589 18.3824C14.0149 18.1943 15.6731 17.7654 16.8921 17.1546C18.0481 16.5753 19.0833 15.6835 19.0833 14.4583H17.5833Z" fill="white"/>
</svg>
