<svg width="20" height="20" viewBox="0 0 20 20" fill="none" xmlns="http://www.w3.org/2000/svg">
<g clip-path="url(#clip0_19_838)">
<circle cx="9.16666" cy="9.16666" r="7.5" stroke="white" stroke-width="1.5"/>
<path d="M18.1767 17.479C18.1244 17.5579 18.03 17.6523 17.8411 17.8412C17.6523 18.03 17.5579 18.1244 17.479 18.1767C17.0168 18.4827 16.3916 18.325 16.1299 17.8363C16.0853 17.7529 16.0469 17.625 15.9703 17.3692C15.8865 17.0896 15.8446 16.9499 15.8365 16.8515C15.7889 16.2724 16.2723 15.7889 16.8515 15.8366C16.9498 15.8446 17.0896 15.8865 17.3691 15.9703C17.625 16.047 17.7529 16.0853 17.8363 16.13C18.325 16.3916 18.4827 17.0168 18.1767 17.479Z" stroke="white" stroke-width="1.5" stroke-linecap="round"/>
</g>
<defs>
<clipPath id="clip0_19_838">
<rect width="20" height="20" fill="white"/>
</clipPath>
</defs>
</svg>

