<svg width="18" height="18" viewBox="0 0 18 18" fill="none" xmlns="http://www.w3.org/2000/svg">
<g clip-path="url(#clip0_14_363)">
<path d="M17.9578 12.0095C17.7715 7.78018 14.9695 4.51416 10.6418 3.47002V2.93916C10.6418 2.04268 9.91406 1.31494 9.01758 1.31494C8.97188 1.31494 8.92969 1.31846 8.88399 1.32197C8.04024 1.39229 7.39336 2.09541 7.39336 2.94268V3.44541C1.94063 4.89033 -0.393748 8.60986 0.0527366 15.1524C0.0492209 15.6095 0.179299 15.9997 0.432424 16.2739C0.675002 16.5411 1.00899 16.6817 1.4168 16.6853C2.21836 16.6853 2.72813 16.0665 2.75274 15.0716C2.75977 14.7024 2.76328 14.3263 2.76328 13.9606C2.76328 13.0923 2.7668 12.1923 2.8793 11.3169C3.18164 8.94736 5.11875 6.83096 7.39336 6.38447V12.1958C7.39336 13.0923 8.1211 13.82 9.01758 13.82H9.02461H9.03164C9.13008 13.82 9.225 13.8095 9.31992 13.7919C10.0863 13.6442 10.6418 12.9763 10.6418 12.1958V6.38799L10.6523 6.3915C12.9199 6.83447 14.8535 8.95088 15.1453 11.3134C15.2543 12.1888 15.2578 13.0888 15.2578 13.9571C15.2578 14.3509 15.2613 14.7587 15.2719 15.156C15.2965 16.0876 15.8203 16.6888 16.6078 16.6888H16.6148C17.4234 16.6853 17.9543 16.0806 17.9754 15.1524L17.9789 14.9415C18 13.9782 18.0211 12.9833 17.9578 12.0095Z" fill="#447355"/>
</g>
<defs>
<clipPath id="clip0_14_363">
<rect width="18" height="18" fill="white"/>
</clipPath>
</defs>
</svg>
