<svg width="20" height="21" viewBox="0 0 20 21" fill="none" xmlns="http://www.w3.org/2000/svg">
<path d="M15.8333 4.66667L12.5 8M12.5 8V5.5M12.5 8H15" stroke="white" stroke-width="1.5" stroke-linecap="round" stroke-linejoin="round"/>
<path d="M12.5839 13.0227L12.0401 12.5062H12.0401L12.5839 13.0227ZM12.9635 12.6231L13.5073 13.1396L12.9635 12.6231ZM14.9774 12.3436L14.6032 12.9936H14.6032L14.9774 12.3436ZM16.5694 13.26L16.1953 13.91L16.5694 13.26ZM17.0181 16.132L17.5619 16.6485L17.0181 16.132ZM15.8343 17.3783L15.2905 16.8618L15.8343 17.3783ZM14.7302 17.9692L14.8039 18.7156L14.7302 17.9692ZM6.5128 14.2293L7.05659 13.7128L6.5128 14.2293ZM2.50241 6.30495L1.75348 6.34514L1.75348 6.34514L2.50241 6.30495ZM7.89793 7.58593L8.44173 8.10244L7.89793 7.58593ZM8.02853 5.24425L8.64093 4.81127V4.81127L8.02853 5.24425ZM6.97771 3.75801L6.36532 4.191L6.36532 4.191L6.97771 3.75801ZM4.38454 3.5072L4.92834 4.02372L4.92834 4.02372L4.38454 3.5072ZM3.07654 4.88428L2.53275 4.36776L2.53275 4.36776L3.07654 4.88428ZM9.21927 11.3799L9.76306 10.8634L9.21927 11.3799ZM13.1277 13.5392L13.5073 13.1396L12.4197 12.1066L12.0401 12.5062L13.1277 13.5392ZM14.6032 12.9936L16.1953 13.91L16.9436 12.61L15.3515 11.6936L14.6032 12.9936ZM16.4743 15.6155L15.2905 16.8618L16.3781 17.8949L17.5619 16.6485L16.4743 15.6155ZM14.6566 17.2229C13.4931 17.3377 10.413 17.2464 7.05659 13.7128L5.96901 14.7458C9.69059 18.664 13.2516 18.8688 14.8039 18.7156L14.6566 17.2229ZM7.05659 13.7128C3.84791 10.3347 3.31734 7.49465 3.25133 6.26475L1.75348 6.34514C1.83772 7.91445 2.50328 11.0971 5.96901 14.7458L7.05659 13.7128ZM8.20271 8.35408L8.44173 8.10244L7.35414 7.06941L7.11513 7.32105L8.20271 8.35408ZM8.64093 4.81127L7.59011 3.32503L6.36532 4.191L7.41614 5.67723L8.64093 4.81127ZM3.84075 2.99069L2.53275 4.36776L3.62033 5.4008L4.92834 4.02372L3.84075 2.99069ZM7.65892 7.83756C7.11513 7.32105 7.11443 7.32178 7.11374 7.32251C7.1135 7.32276 7.1128 7.3235 7.11233 7.324C7.11139 7.32501 7.11043 7.32604 7.10945 7.32708C7.10751 7.32918 7.1055 7.33135 7.10345 7.33361C7.09934 7.33813 7.09501 7.34299 7.0905 7.34818C7.08147 7.35856 7.07167 7.3703 7.06128 7.38343C7.0405 7.40969 7.01733 7.44153 6.99323 7.4792C6.94488 7.55475 6.89328 7.65297 6.84984 7.77504C6.76135 8.02369 6.71527 8.34734 6.77358 8.74526C6.88784 9.52507 7.39437 10.5477 8.67547 11.8964L9.76306 10.8634C8.58166 9.6196 8.30802 8.87103 8.25773 8.5278C8.23376 8.3642 8.25931 8.28836 8.26303 8.27792C8.26569 8.27043 8.26533 8.27419 8.2567 8.28768C8.25246 8.29431 8.24627 8.30322 8.2375 8.3143C8.23311 8.31984 8.22808 8.32592 8.22231 8.33255C8.21943 8.33587 8.21636 8.33932 8.2131 8.34291C8.21147 8.3447 8.20979 8.34653 8.20806 8.34839C8.20719 8.34932 8.20632 8.35026 8.20542 8.35121C8.20498 8.35168 8.2043 8.3524 8.20408 8.35264C8.2034 8.35336 8.20271 8.35408 7.65892 7.83756ZM8.67547 11.8964C9.95208 13.2405 10.934 13.7886 11.7048 13.9138C12.1018 13.9783 12.4283 13.9274 12.6797 13.8283C12.8023 13.7799 12.9 13.7228 12.9742 13.6702C13.0113 13.6439 13.0424 13.6188 13.0678 13.5965C13.0805 13.5854 13.0918 13.5749 13.1018 13.5653C13.1068 13.5605 13.1114 13.5559 13.1157 13.5515C13.1179 13.5493 13.12 13.5472 13.122 13.5452C13.123 13.5441 13.124 13.5431 13.1249 13.5421C13.1254 13.5416 13.1261 13.5409 13.1263 13.5406C13.127 13.5399 13.1277 13.5392 12.5839 13.0227C12.0401 12.5062 12.0408 12.5054 12.0415 12.5047C12.0417 12.5045 12.0424 12.5038 12.0429 12.5033C12.0438 12.5024 12.0447 12.5014 12.0455 12.5005C12.0473 12.4987 12.0491 12.4969 12.0508 12.4952C12.0542 12.4917 12.0575 12.4884 12.0607 12.4854C12.0671 12.4792 12.0731 12.4737 12.0786 12.4689C12.0896 12.4592 12.0989 12.452 12.1065 12.4467C12.1217 12.4358 12.1297 12.4327 12.1293 12.4329C12.1293 12.4329 12.1173 12.4377 12.0904 12.4406C12.0635 12.4434 12.0162 12.4447 11.9453 12.4332C11.6494 12.3851 10.949 12.1119 9.76306 10.8634L8.67547 11.8964ZM7.59011 3.32503C6.70368 2.0713 4.92118 1.85319 3.84075 2.99069L4.92834 4.02372C5.30542 3.62672 5.98013 3.6462 6.36532 4.191L7.59011 3.32503ZM3.25133 6.26475C3.23577 5.97486 3.36121 5.6736 3.62033 5.4008L2.53275 4.36776C2.06917 4.85583 1.71032 5.54089 1.75348 6.34514L3.25133 6.26475ZM15.2905 16.8618C15.0716 17.0922 14.8544 17.2033 14.6566 17.2229L14.8039 18.7156C15.4651 18.6504 15.9949 18.2982 16.3781 17.8949L15.2905 16.8618ZM8.44173 8.10244C9.29154 7.20775 9.34892 5.81262 8.64093 4.81127L7.41614 5.67723C7.73555 6.12899 7.68191 6.72433 7.35414 7.06941L8.44173 8.10244ZM16.1953 13.91C16.8117 14.2648 16.9272 15.1386 16.4743 15.6155L17.5619 16.6485C18.707 15.4429 18.372 13.4322 16.9436 12.61L16.1953 13.91ZM13.5073 13.1396C13.7878 12.8443 14.2248 12.7758 14.6032 12.9936L15.3515 11.6936C14.3873 11.1386 13.1885 11.2971 12.4197 12.1066L13.5073 13.1396Z" fill="white"/>
</svg>
