<svg width="22" height="22" viewBox="0 0 22 22" fill="none" xmlns="http://www.w3.org/2000/svg">
<path d="M8.34947 21.2813C7.94088 21.2823 7.53729 21.1915 7.1685 21.0156C6.7997 20.8397 6.47511 20.5832 6.21869 20.2651L1.13526 14.0377C0.669234 13.4665 0.436416 12.7403 0.48351 12.0047C0.530603 11.2691 0.854125 10.5784 1.38917 10.0714C1.92422 9.56435 2.63121 9.27838 3.3683 9.27085C4.1054 9.26333 4.81808 9.53481 5.36336 10.0308L8.55176 12.9322L18.886 1.25592C19.0148 1.10059 19.1738 0.973143 19.3534 0.881358C19.5331 0.789574 19.7296 0.735382 19.9309 0.722095C20.1322 0.708807 20.334 0.736703 20.5242 0.804078C20.7144 0.871453 20.8888 0.976892 21.0368 1.11395C21.5502 1.58934 21.6756 2.38724 21.3238 2.93324L10.7634 19.9409C10.7616 19.9438 10.7598 19.9466 10.758 19.9494C10.2404 20.7441 9.41812 21.2281 8.50206 21.2773C8.45101 21.28 8.40015 21.2813 8.34947 21.2813ZM3.39726 10.1897C3.01936 10.1908 2.64949 10.2988 2.33044 10.5013C2.01138 10.7038 1.75617 10.9925 1.59434 11.334C1.43251 11.6755 1.37067 12.0558 1.41597 12.431C1.46127 12.8061 1.61186 13.1608 1.85032 13.454L6.93407 19.6816C7.11534 19.9066 7.34766 20.0851 7.61175 20.2023C7.87584 20.3195 8.16408 20.372 8.45253 20.3554C9.06956 20.3223 9.62669 19.9922 9.98184 19.4495L20.5418 2.44267C20.5436 2.43987 20.5454 2.43706 20.5472 2.43423C20.6463 2.28192 20.6142 1.98063 20.4097 1.79126C20.3535 1.73924 20.2873 1.69927 20.2151 1.67382C20.1429 1.64837 20.0662 1.63796 19.9898 1.64326C19.9135 1.64855 19.839 1.66942 19.771 1.70459C19.703 1.73976 19.6429 1.78848 19.5944 1.84775C19.5906 1.85237 19.5867 1.85698 19.5827 1.8616L8.93286 13.8944C8.89233 13.9402 8.84311 13.9774 8.78806 14.0041C8.733 14.0307 8.67321 14.0461 8.61215 14.0494C8.55109 14.0527 8.48998 14.0438 8.43238 14.0233C8.37477 14.0028 8.32182 13.971 8.2766 13.9299L4.74209 10.7134C4.37501 10.3769 3.89523 10.1901 3.39726 10.1897Z" fill="black"/>
</svg>
