<svg width="19" height="19" viewBox="0 0 19 19" fill="none" xmlns="http://www.w3.org/2000/svg">
<path d="M6.36922 6.1166L1.05255 6.88744L0.958382 6.9066C0.815832 6.94445 0.685878 7.01944 0.581793 7.12394C0.477707 7.22843 0.403219 7.35868 0.365934 7.50137C0.32865 7.64407 0.329905 7.79411 0.369572 7.93616C0.409239 8.07822 0.485896 8.2072 0.591716 8.30994L4.44338 12.0591L3.53505 17.3549L3.52422 17.4466C3.51549 17.594 3.5461 17.7411 3.61292 17.8729C3.67974 18.0046 3.78037 18.1162 3.9045 18.1962C4.02862 18.2762 4.17179 18.3218 4.31934 18.3284C4.46689 18.3349 4.61352 18.3021 4.74422 18.2333L9.49922 15.7333L14.2434 18.2333L14.3267 18.2716C14.4643 18.3258 14.6138 18.3424 14.7598 18.3197C14.9059 18.2971 15.0434 18.236 15.158 18.1427C15.2727 18.0494 15.3605 17.9272 15.4124 17.7888C15.4643 17.6504 15.4784 17.5006 15.4534 17.3549L14.5442 12.0591L18.3975 8.3091L18.4625 8.23827C18.5554 8.12391 18.6163 7.98698 18.639 7.84143C18.6617 7.69588 18.6454 7.54692 18.5918 7.40971C18.5382 7.2725 18.4492 7.15196 18.3338 7.06036C18.2184 6.96876 18.0808 6.90938 17.935 6.88827L12.6184 6.1166L10.2417 1.29994C10.1729 1.16038 10.0665 1.04286 9.93437 0.960689C9.80227 0.878514 9.64979 0.834961 9.49422 0.834961C9.33864 0.834961 9.18616 0.878514 9.05406 0.960689C8.92195 1.04286 8.81549 1.16038 8.74671 1.29994L6.36922 6.1166Z" fill="#FABD21"/>
</svg>
