<svg width="450" height="450" viewBox="0 0 450 450" fill="none" xmlns="http://www.w3.org/2000/svg">
<path d="M237.196 113.729L193.316 103.716C192.966 103.639 192.635 103.493 192.341 103.287C192.048 103.08 191.799 102.818 191.608 102.514C191.418 102.21 191.29 101.872 191.231 101.518C191.173 101.164 191.186 100.802 191.269 100.454L191.633 98.8515C191.71 98.5013 191.856 98.1699 192.062 97.8767C192.269 97.5834 192.531 97.3343 192.835 97.1437C193.139 96.9531 193.477 96.8249 193.831 96.7665C194.185 96.7082 194.547 96.721 194.896 96.804L238.771 106.817L237.196 113.729Z" fill="#C7B8F8"/>
<path d="M255.891 175.811L242.166 173.272C233.616 171.691 226.045 166.777 221.117 159.614C216.19 152.45 214.31 143.622 215.89 135.072L220.498 110.079C220.928 107.754 222.264 105.695 224.211 104.355C226.159 103.015 228.559 102.503 230.884 102.933L286.284 113.18C287.935 113.481 289.511 114.105 290.922 115.016C292.332 115.927 293.549 117.107 294.502 118.489C295.455 119.871 296.127 121.427 296.478 123.069C296.829 124.711 296.853 126.406 296.548 128.057L292.341 150.75C290.829 158.906 286.14 166.128 279.305 170.827C272.469 175.527 264.047 177.319 255.891 175.811Z" fill="black"/>
<path d="M228.754 107.195C225.739 107.015 223.975 107.843 223.017 108.473C217.09 112.352 220.393 122.459 213.238 132.867C212.531 133.895 211.758 134.876 210.925 135.806L209.287 137.574C208.874 138.021 208.639 138.603 208.626 139.212C208.612 139.82 208.822 140.413 209.215 140.877L211.438 143.487L210.313 157.257C210.21 158.454 209.557 167.373 216.06 173.07L216.51 173.457C219.086 175.504 222.261 176.651 225.55 176.724L235.977 177.044V192.271H270.514L270.856 160.529C270.856 160.529 278.727 159.179 280.158 151.434C280.519 149.497 280.437 147.503 279.918 145.602C279.399 143.702 278.457 141.943 277.161 140.459C274.582 137.538 270.037 135.059 262.554 138.551C260.051 139.546 257.321 139.833 254.666 139.379C252.01 138.925 249.531 137.748 247.501 135.977C242.394 131.405 242.767 124.866 242.826 124.069C242.826 124.069 237.03 122.351 234.244 120.416C231.868 118.764 229.281 115.29 228.754 107.195Z" fill="white"/>
<path d="M271.416 193.171H235.088V177.916L225.53 177.619C222.046 177.535 218.684 176.317 215.954 174.15C215.792 174.015 215.625 173.88 215.463 173.736C208.826 167.917 209.262 158.913 209.415 157.167L210.509 143.775L208.529 141.453C207.99 140.822 207.702 140.015 207.719 139.185C207.737 138.355 208.059 137.561 208.623 136.953L210.261 135.18C211.073 134.284 211.824 133.335 212.511 132.34C215.985 127.296 216.908 122.377 217.722 118.039C218.537 113.701 219.257 109.854 222.542 107.689C224.211 106.596 226.326 106.119 228.842 106.272L229.634 106.322L229.688 107.109C230.093 113.36 231.812 117.576 234.795 119.646C237.432 121.478 243.066 123.165 243.12 123.179L243.818 123.385L243.764 124.11C243.678 125.244 243.494 131.121 248.138 135.279C250.037 136.946 252.361 138.054 254.852 138.481C257.343 138.907 259.904 138.636 262.25 137.695C270.314 133.96 275.201 136.795 277.883 139.833C279.265 141.422 280.271 143.303 280.827 145.335C281.382 147.367 281.473 149.497 281.091 151.569C279.831 158.391 273.891 160.627 271.794 161.212L271.416 193.171ZM236.888 191.371H269.634L269.999 159.75L270.737 159.624C271.034 159.575 278.009 158.274 279.287 151.249C279.621 149.447 279.544 147.592 279.062 145.824C278.579 144.055 277.704 142.418 276.501 141.035C273.185 137.281 268.626 136.715 262.947 139.352L262.893 139.374C260.236 140.442 257.333 140.751 254.51 140.266C251.687 139.781 249.054 138.522 246.905 136.629C242.297 132.498 241.874 126.904 241.905 124.704C240.267 124.182 236.055 122.751 233.738 121.136C230.421 118.836 228.464 114.435 227.919 108.054C226.37 107.998 224.838 108.399 223.514 109.206C220.872 110.934 220.256 114.215 219.464 118.368C218.658 122.657 217.664 127.998 213.969 133.358C213.241 134.418 212.444 135.429 211.584 136.386L209.933 138.186C209.67 138.472 209.52 138.845 209.513 139.234C209.505 139.622 209.64 140 209.892 140.296L212.354 143.19L211.202 157.329C211.058 158.931 210.657 167.148 216.642 172.39C216.786 172.516 216.935 172.643 217.092 172.759C219.519 174.676 222.502 175.751 225.593 175.824L236.892 176.175L236.888 191.371Z" fill="black"/>
<path d="M268.506 154.755C267.794 154.755 267.098 154.544 266.506 154.148C265.914 153.753 265.453 153.19 265.18 152.533C264.908 151.875 264.837 151.151 264.975 150.453C265.114 149.754 265.457 149.113 265.961 148.609C266.464 148.106 267.106 147.763 267.804 147.624C268.502 147.485 269.226 147.557 269.884 147.829C270.542 148.102 271.104 148.563 271.5 149.155C271.895 149.747 272.106 150.443 272.106 151.155C272.106 152.11 271.727 153.025 271.052 153.701C270.377 154.376 269.461 154.755 268.506 154.755ZM268.506 149.328C268.15 149.328 267.802 149.434 267.506 149.631C267.21 149.829 266.98 150.11 266.843 150.439C266.707 150.768 266.671 151.13 266.741 151.479C266.81 151.828 266.982 152.149 267.233 152.401C267.485 152.653 267.806 152.824 268.155 152.893C268.504 152.963 268.866 152.927 269.195 152.791C269.524 152.655 269.805 152.424 270.003 152.128C270.201 151.832 270.306 151.484 270.306 151.128C270.306 150.651 270.117 150.193 269.779 149.855C269.441 149.518 268.984 149.328 268.506 149.328Z" fill="black"/>
<path d="M265.792 152.041C265.558 152.042 265.334 151.951 265.166 151.789C264.998 151.627 264.9 151.406 264.892 151.173C264.829 149.314 265.382 147.811 266.543 146.704C268.847 144.504 272.695 144.783 272.843 144.801C272.961 144.81 273.076 144.842 273.182 144.896C273.288 144.95 273.382 145.024 273.459 145.114C273.536 145.204 273.595 145.308 273.631 145.421C273.668 145.534 273.682 145.653 273.673 145.771C273.664 145.889 273.632 146.004 273.578 146.11C273.524 146.216 273.45 146.31 273.36 146.387C273.27 146.464 273.166 146.522 273.053 146.559C272.941 146.596 272.822 146.61 272.704 146.601C272.672 146.601 269.482 146.376 267.754 148.018C267.355 148.424 267.05 148.913 266.861 149.449C266.672 149.986 266.603 150.557 266.66 151.123C266.667 151.361 266.58 151.593 266.417 151.766C266.254 151.94 266.029 152.042 265.792 152.05V152.041Z" fill="black"/>
<path d="M230.64 138.523C231.816 138.523 232.769 137.571 232.769 136.395C232.769 135.219 231.816 134.266 230.64 134.266C229.465 134.266 228.512 135.219 228.512 136.395C228.512 137.571 229.465 138.523 230.64 138.523Z" fill="black"/>
<path d="M235.934 176.188H252.449C252.597 176.187 252.741 176.237 252.856 176.331C252.971 176.424 253.05 176.554 253.08 176.699C253.11 176.844 253.088 176.995 253.019 177.126C252.95 177.257 252.837 177.36 252.701 177.417L235.934 184.567V176.188Z" fill="black"/>
<path d="M220.63 156.069C218.773 156.042 216.952 155.55 215.334 154.638C215.231 154.579 215.142 154.5 215.069 154.406C214.997 154.313 214.944 154.205 214.914 154.091C214.883 153.977 214.875 153.858 214.89 153.74C214.906 153.623 214.944 153.51 215.003 153.407C215.062 153.305 215.141 153.215 215.235 153.143C215.329 153.071 215.436 153.018 215.55 152.987C215.664 152.956 215.784 152.948 215.901 152.964C216.018 152.979 216.131 153.017 216.234 153.076C216.486 153.22 222.223 156.424 225.409 151.726C225.476 151.629 225.561 151.545 225.66 151.48C225.759 151.415 225.869 151.37 225.986 151.348C226.102 151.326 226.221 151.327 226.337 151.351C226.453 151.375 226.563 151.422 226.66 151.488C226.758 151.554 226.842 151.64 226.907 151.738C226.972 151.837 227.017 151.948 227.039 152.064C227.061 152.18 227.06 152.3 227.036 152.415C227.012 152.531 226.965 152.641 226.899 152.739C226.227 153.785 225.298 154.641 224.2 155.224C223.102 155.807 221.873 156.098 220.63 156.069Z" fill="black"/>
<path d="M296.495 127.291L220.27 109.899C222.15 101.657 227.227 94.5005 234.384 90.0025C241.542 85.5044 250.192 84.0337 258.434 85.914L272.51 89.127C280.751 91.0084 287.907 96.0859 292.405 103.243C296.903 110.4 298.374 119.05 296.495 127.291Z" fill="#C7B8F8"/>
<path d="M271.626 183.29L233.508 185.935C227.51 186.351 222.986 191.55 223.402 197.548C223.818 203.545 229.018 208.07 235.015 207.654L273.133 205.008C279.13 204.592 283.655 199.393 283.239 193.395C282.822 187.398 277.623 182.873 271.626 183.29Z" fill="#447355"/>
<path d="M295.989 195.453H204.059V312.539H295.989V195.453Z" fill="#447355"/>
<path d="M209.844 233.798H64.1748C58.0312 233.798 53.0508 238.778 53.0508 244.922V320.535C53.0508 326.679 58.0312 331.659 64.1748 331.659H209.844C215.988 331.659 220.968 326.679 220.968 320.535V244.922C220.968 238.778 215.988 233.798 209.844 233.798Z" fill="#FFBB45"/>
<path d="M256.4 369.473H219.441L282.761 195.453H305.022C330.803 195.453 348.672 221.135 339.767 245.318L306.899 334.278C303.087 344.602 296.203 353.51 287.174 359.802C278.145 366.095 267.405 369.47 256.4 369.473Z" fill="#447355"/>
<path d="M189.982 332.55C189.743 332.55 189.514 332.455 189.346 332.286C189.177 332.118 189.082 331.889 189.082 331.65V279.342C189.082 279.103 189.177 278.874 189.346 278.706C189.514 278.537 189.743 278.442 189.982 278.442C190.221 278.442 190.45 278.537 190.618 278.706C190.787 278.874 190.882 279.103 190.882 279.342V331.65C190.882 331.889 190.787 332.118 190.618 332.286C190.45 332.455 190.221 332.55 189.982 332.55Z" fill="black"/>
<path d="M274.397 331.056C282.659 326.705 290.359 327.339 293.666 327.659C298.608 328.139 303.404 329.6 307.774 331.956C308.403 329.881 308.784 327.739 308.908 325.575C309.056 322.961 309.317 311.715 300.695 303.899C294.764 298.499 287.825 297.657 285.179 297.473H188.389C182.463 297.478 176.782 299.836 172.594 304.028C168.405 308.22 166.052 313.903 166.051 319.828V347.112C166.051 353.042 168.407 358.73 172.6 362.923C176.793 367.117 182.481 369.473 188.411 369.473H257.081C257.948 369.473 258.812 369.45 259.673 369.405C259.031 368.587 258.475 367.704 258.013 366.772C253.418 357.453 260.047 346.072 261.406 343.759C264.444 338.379 268.95 333.973 274.397 331.056Z" fill="#447355"/>
<path d="M307.773 331.956C306.243 331.142 289.656 322.668 274.397 331.056C260.951 338.445 252.729 356.607 257.99 366.773C258.471 367.693 259.027 368.574 259.65 369.405C270.513 368.745 280.922 364.816 289.511 358.132C298.099 351.449 304.465 342.324 307.773 331.956Z" fill="#FFC1EB"/>
<path d="M91.2293 248.796H67.1543C64.3012 248.796 61.9883 251.109 61.9883 253.962V266.049C61.9883 268.902 64.3012 271.215 67.1543 271.215H91.2293C94.0824 271.215 96.3953 268.902 96.3953 266.049V253.962C96.3953 251.109 94.0824 248.796 91.2293 248.796Z" fill="#FB6D6D"/>
<path d="M92.5454 280.589H64.7984C64.5597 280.589 64.3308 280.494 64.162 280.325C63.9933 280.156 63.8984 279.927 63.8984 279.689C63.8984 279.45 63.9933 279.221 64.162 279.052C64.3308 278.883 64.5597 278.789 64.7984 278.789H92.5319C92.7706 278.789 92.9996 278.883 93.1683 279.052C93.3371 279.221 93.4319 279.45 93.4319 279.689C93.4319 279.927 93.3371 280.156 93.1683 280.325C92.9996 280.494 92.7706 280.589 92.5319 280.589H92.5454Z" fill="black"/>
<path d="M85.2149 289.062H64.7984C64.5597 289.062 64.3308 288.967 64.162 288.798C63.9933 288.63 63.8984 288.401 63.8984 288.162C63.8984 287.923 63.9933 287.694 64.162 287.526C64.3308 287.357 64.5597 287.262 64.7984 287.262H85.2014C85.4401 287.262 85.6691 287.357 85.8378 287.526C86.0066 287.694 86.1014 287.923 86.1014 288.162C86.1014 288.401 86.0066 288.63 85.8378 288.798C85.6691 288.967 85.4401 289.062 85.2014 289.062H85.2149Z" fill="black"/>
<path d="M189.805 280.242C188.284 280.243 186.785 279.876 185.436 279.17C184.088 278.465 182.931 277.443 182.065 276.192L153.715 238.352C153.644 238.257 153.593 238.149 153.563 238.035C153.534 237.92 153.527 237.801 153.544 237.684C153.561 237.567 153.601 237.455 153.661 237.353C153.721 237.251 153.801 237.162 153.895 237.092C153.99 237.021 154.097 236.969 154.212 236.94C154.326 236.91 154.445 236.904 154.562 236.921C154.679 236.937 154.792 236.977 154.894 237.037C154.995 237.097 155.084 237.177 155.155 237.272L183.532 275.139C184.254 276.187 185.226 277.038 186.361 277.614C187.496 278.191 188.757 278.474 190.029 278.438C191.301 278.402 192.544 278.049 193.645 277.41C194.745 276.77 195.668 275.866 196.33 274.779L217.624 237.366C217.683 237.263 217.762 237.174 217.856 237.101C217.95 237.029 218.057 236.976 218.171 236.946C218.285 236.915 218.405 236.907 218.522 236.922C218.639 236.938 218.752 236.976 218.855 237.035C218.957 237.094 219.047 237.173 219.119 237.267C219.192 237.361 219.244 237.468 219.275 237.582C219.306 237.696 219.314 237.816 219.298 237.933C219.283 238.05 219.245 238.163 219.186 238.266L197.883 275.701C197.069 277.049 195.931 278.172 194.572 278.966C193.213 279.76 191.676 280.2 190.102 280.247L189.805 280.242Z" fill="black"/>
<path d="M151.995 332.55C151.757 332.55 151.528 332.455 151.359 332.286C151.19 332.118 151.095 331.889 151.095 331.65V247.891C150.713 235.593 158.682 233.041 159.02 232.933C159.133 232.899 159.252 232.887 159.37 232.898C159.487 232.91 159.602 232.944 159.706 233C159.811 233.055 159.903 233.131 159.979 233.222C160.054 233.314 160.11 233.419 160.145 233.532C160.179 233.645 160.191 233.764 160.18 233.882C160.169 234 160.134 234.114 160.079 234.218C160.023 234.323 159.947 234.415 159.856 234.491C159.765 234.566 159.66 234.622 159.546 234.657C159.263 234.747 152.558 236.974 152.895 247.864V331.65C152.895 331.889 152.801 332.118 152.632 332.286C152.463 332.455 152.234 332.55 151.995 332.55Z" fill="black"/>
<path d="M202.752 187.65H88.2318C85.6919 187.65 83.6328 189.709 83.6328 192.249V229.014C83.6328 231.554 85.6919 233.613 88.2318 233.613H202.752C205.292 233.613 207.351 231.554 207.351 229.014V192.249C207.351 189.709 205.292 187.65 202.752 187.65Z" fill="#FFC1EB"/>
<path d="M207.351 208.386H83.6328V212.872H207.351V208.386Z" fill="#FB6D6D"/>
<path d="M195.511 149.719H124.254C121.083 149.719 118.512 152.29 118.512 155.462V182.088C118.512 185.259 121.083 187.83 124.254 187.83H195.511C198.682 187.83 201.253 185.259 201.253 182.088V155.462C201.253 152.29 198.682 149.719 195.511 149.719Z" fill="#FFBB45"/>
<path d="M201.253 165.73H118.512V168.777H201.253V165.73Z" fill="#447355"/>
<path d="M160.634 149.719H156.984V187.83H160.634V149.719Z" fill="#447355"/>
<path d="M190.22 115.236H155.745C152.691 115.236 150.215 117.712 150.215 120.766V144.193C150.215 147.248 152.691 149.724 155.745 149.724H190.22C193.274 149.724 195.75 147.248 195.75 144.193V120.766C195.75 117.712 193.274 115.236 190.22 115.236Z" fill="#C7B8F8"/>
<path d="M172.651 134.253C170.52 134.253 168.469 133.434 166.923 131.967L151.366 117.378C151.192 117.214 151.09 116.988 151.082 116.75C151.075 116.511 151.162 116.279 151.326 116.105C151.489 115.93 151.716 115.828 151.954 115.82C152.193 115.813 152.425 115.9 152.599 116.064L168.156 130.658C169.353 131.792 170.935 132.432 172.584 132.448C174.234 132.465 175.828 131.858 177.048 130.747L193.383 116.051C193.562 115.891 193.797 115.809 194.036 115.823C194.275 115.837 194.499 115.946 194.659 116.125C194.818 116.304 194.9 116.539 194.886 116.778C194.872 117.017 194.764 117.241 194.584 117.401L178.249 132.097C176.715 133.484 174.72 134.253 172.651 134.253Z" fill="black"/>
<path d="M156.417 317.056C156.476 318.253 136.32 317.182 134.777 317.101C131.51 316.935 128.247 316.751 124.985 316.53C121.502 316.296 117.992 315.477 114.509 315.576C112.884 315.626 111.296 316.08 110.459 317.614C108.569 321.165 115.512 323.654 117.771 324.432C122.123 325.926 125.381 325.971 125.376 326.475C125.376 326.799 124.026 327.136 121.686 327.348C115.584 327.906 103.992 326.61 93.2239 322.528C90.7399 321.588 88.2739 320.18 85.6144 319.793C84.9335 319.668 84.2316 319.727 83.5814 319.965C82.9311 320.202 82.356 320.609 81.9154 321.143C81.0874 322.254 80.8984 324.229 81.8074 325.35C82.335 325.9 82.9417 326.369 83.6074 326.741C83.0086 327.003 82.4472 327.343 81.9379 327.753C80.6554 328.968 81.0379 331.204 81.9379 332.523C83.1349 334.291 85.1329 335.439 86.8879 336.546C88.948 337.843 91.0766 339.029 93.2644 340.097C93.5905 340.238 93.9012 340.413 94.1914 340.618C94.7128 341.04 95.1679 341.538 95.5414 342.095C95.9807 342.647 96.4605 343.166 96.9769 343.647C100.892 347.427 106.184 349.717 111.354 351.166C116.525 352.615 121.952 353.349 127.352 354.001C135.078 354.942 143.151 354.587 150.527 351.936C151.467 351.599 158.087 349.236 158.033 348.192C157.493 337.812 156.954 327.433 156.417 317.056Z" fill="white"/>
<path d="M134.918 355.378C132.346 355.373 129.776 355.211 127.223 354.893C121.445 354.191 116.248 353.489 111.122 352.053C104.822 350.285 99.8499 347.679 96.3624 344.313C95.8134 343.8 95.3035 343.246 94.8369 342.657L94.6749 342.441C94.4053 342.037 94.0761 341.676 93.6984 341.37C93.4646 341.201 93.2125 341.059 92.9469 340.947C90.6564 339.943 86.4849 337.347 86.4444 337.347L85.9944 337.077C84.3114 336.033 82.3944 334.827 81.1929 333.063C79.9914 331.299 79.7439 328.635 81.3234 327.136C81.4994 326.973 81.6874 326.822 81.8859 326.686C81.601 326.467 81.34 326.218 81.1074 325.944C79.9014 324.454 80.1804 321.993 81.1974 320.629C81.7308 319.961 82.4344 319.449 83.2341 319.147C84.0339 318.844 84.9003 318.762 85.7424 318.91C87.7224 319.198 89.5629 320.004 91.3449 320.778C92.1009 321.111 92.8209 321.422 93.5454 321.678C104.251 325.728 115.595 326.992 121.607 326.443H121.715C120.282 326.141 118.868 325.754 117.481 325.282C112.859 323.698 110.24 321.979 109.471 320.026C109.291 319.569 109.215 319.077 109.249 318.587C109.283 318.096 109.427 317.619 109.669 317.191C110.519 315.589 112.135 314.744 114.461 314.676C116.668 314.67 118.871 314.842 121.049 315.189C122.368 315.364 123.749 315.544 125.059 315.639C128.101 315.846 131.296 316.035 134.833 316.215H134.977C148.193 316.899 154.997 316.813 155.879 316.422C155.764 316.493 155.67 316.594 155.609 316.715C155.547 316.836 155.519 316.971 155.528 317.106L157.328 317.016L158.935 348.147C158.971 348.826 159.025 349.852 150.835 352.786C145.719 354.563 140.334 355.44 134.918 355.378ZM84.9684 320.643C84.5254 320.625 84.0841 320.71 83.6801 320.893C83.2761 321.076 82.9206 321.351 82.6419 321.696C82.0524 322.483 81.8679 324.013 82.5069 324.805C82.9634 325.267 83.4849 325.66 84.0549 325.971L85.6164 326.844L84.0009 327.6C83.4935 327.822 83.0158 328.106 82.5789 328.446C81.6789 329.323 82.0569 331.105 82.7004 332.046C83.6949 333.508 85.3554 334.543 86.9619 335.538L87.4119 335.812C89.432 337.083 91.5168 338.247 93.6579 339.3C94.0423 339.465 94.4074 339.672 94.7469 339.916C95.2705 340.325 95.7261 340.814 96.0969 341.366L96.2544 341.572C96.6677 342.09 97.119 342.576 97.6044 343.026C100.876 346.176 105.583 348.642 111.599 350.329C116.603 351.733 121.729 352.422 127.435 353.115C135.931 354.15 143.59 353.47 150.2 351.099C154.795 349.452 156.649 348.399 157.099 348.016L155.569 318.316C153.544 318.609 148.445 318.735 134.869 318.033H134.72C131.179 317.853 127.97 317.664 124.919 317.457C123.538 317.367 122.143 317.183 120.797 317.007C118.724 316.68 116.628 316.514 114.529 316.512C112.846 316.561 111.829 317.056 111.271 318.073C111.147 318.274 111.072 318.501 111.054 318.735C111.035 318.97 111.072 319.206 111.163 319.423C111.541 320.391 113.053 321.907 118.079 323.635C119.903 324.241 121.768 324.711 123.659 325.044C125.365 325.372 126.305 325.553 126.292 326.543C126.292 327.416 125.554 327.951 121.792 328.297C115.577 328.864 103.895 327.582 92.9244 323.424C92.1594 323.136 91.3854 322.798 90.6429 322.474C88.9689 321.745 87.2409 320.989 85.5039 320.737C85.3343 320.692 85.1612 320.66 84.9864 320.643H84.9684Z" fill="black"/>
<path d="M114.053 337.464C109.369 337.464 103.505 336.159 96.5349 333.558C91.9672 331.839 87.5137 329.831 83.2014 327.546C83.0977 327.489 83.0062 327.412 82.9322 327.32C82.8582 327.227 82.8032 327.121 82.7701 327.008C82.7371 326.894 82.7268 326.775 82.7398 326.657C82.7528 326.54 82.7889 326.426 82.8459 326.322C82.9029 326.218 82.9798 326.127 83.0722 326.053C83.1646 325.979 83.2706 325.924 83.3843 325.891C83.4979 325.858 83.617 325.847 83.7346 325.86C83.8523 325.873 83.9662 325.909 84.0699 325.967C84.2994 326.093 107.272 338.567 118.886 335.021C119.115 334.951 119.362 334.975 119.573 335.087C119.784 335.199 119.942 335.39 120.011 335.619C120.081 335.848 120.057 336.094 119.945 336.305C119.833 336.516 119.641 336.674 119.413 336.744C117.672 337.246 115.866 337.489 114.053 337.464Z" fill="black"/>
<path d="M113.165 346.095C104.422 346.095 94.3732 341.689 93.8602 341.46C93.7455 341.417 93.6409 341.351 93.5526 341.266C93.4644 341.181 93.3945 341.078 93.3472 340.965C93.2998 340.852 93.2761 340.731 93.2774 340.608C93.2787 340.486 93.305 340.365 93.3547 340.253C93.4044 340.141 93.4765 340.04 93.5665 339.957C93.6565 339.874 93.7626 339.81 93.8782 339.769C93.9938 339.728 94.1164 339.711 94.2387 339.72C94.361 339.728 94.4803 339.761 94.5892 339.818C94.7377 339.881 109.358 346.288 118.048 343.66C118.161 343.626 118.28 343.615 118.397 343.626C118.515 343.638 118.629 343.673 118.734 343.728C118.838 343.784 118.93 343.86 119.005 343.951C119.08 344.043 119.136 344.148 119.17 344.261C119.205 344.374 119.216 344.493 119.205 344.611C119.193 344.729 119.158 344.843 119.103 344.947C119.047 345.051 118.971 345.144 118.88 345.219C118.788 345.293 118.683 345.35 118.57 345.384C116.812 345.883 114.992 346.122 113.165 346.095Z" fill="black"/>
<path d="M112.653 116.721H93.2039C90.0451 116.721 87.4844 119.282 87.4844 122.441V182.039C87.4844 185.197 90.0451 187.758 93.2039 187.758H112.653C115.812 187.758 118.372 185.197 118.372 182.039V122.441C118.372 119.282 115.812 116.721 112.653 116.721Z" fill="#447355"/>
<path d="M102.938 140.886H102.871C99.0637 140.863 95.1667 138.983 92.1787 135.72C90.397 133.743 89.0414 131.42 88.196 128.896C87.3506 126.372 87.0336 123.702 87.2647 121.05C87.2743 120.932 87.3071 120.817 87.3612 120.712C87.4153 120.607 87.4896 120.513 87.5799 120.437C87.6702 120.36 87.7747 120.302 87.8873 120.266C88 120.23 88.1188 120.217 88.2367 120.227C88.3546 120.236 88.4695 120.269 88.5747 120.323C88.6799 120.377 88.7735 120.451 88.85 120.542C88.9265 120.632 88.9844 120.736 89.0205 120.849C89.0565 120.962 89.07 121.081 89.0602 121.198C88.8485 123.602 89.134 126.024 89.8989 128.312C90.6638 130.601 91.8917 132.707 93.5062 134.501C96.1567 137.394 99.5722 139.064 102.88 139.082H102.938C106.628 139.082 109.486 137.025 111.232 135.292C114.629 131.926 116.92 126.796 116.938 122.526C116.938 122.322 116.938 122.142 116.938 121.986C116.933 121.868 116.951 121.75 116.992 121.639C117.033 121.528 117.095 121.426 117.176 121.339C117.256 121.252 117.352 121.182 117.46 121.132C117.567 121.083 117.683 121.055 117.802 121.05C118.04 121.04 118.272 121.125 118.447 121.286C118.623 121.447 118.727 121.672 118.738 121.909C118.738 122.092 118.738 122.3 118.738 122.531C118.738 127.251 116.213 132.88 112.501 136.57C109.652 139.396 106.345 140.886 102.938 140.886Z" fill="black"/>
<path d="M89.7245 187.389C89.5911 187.389 89.4594 187.36 89.3387 187.303C89.2181 187.246 89.1116 187.164 89.027 187.061C88.8763 186.876 88.805 186.639 88.8287 186.402C88.8523 186.165 88.9689 185.947 89.153 185.796L102.572 174.758V139.95C102.572 139.711 102.667 139.482 102.836 139.314C103.004 139.145 103.233 139.05 103.472 139.05C103.711 139.05 103.94 139.145 104.108 139.314C104.277 139.482 104.372 139.711 104.372 139.95V175.621L90.296 187.2C90.1328 187.327 89.931 187.393 89.7245 187.389Z" fill="black"/>
<path d="M116.998 186.984C116.791 186.984 116.591 186.912 116.431 186.781L102.931 175.882C102.757 175.729 102.648 175.515 102.628 175.283C102.608 175.052 102.679 174.822 102.825 174.641C102.97 174.46 103.181 174.343 103.411 174.314C103.641 174.284 103.874 174.345 104.061 174.483L117.561 185.382C117.706 185.499 117.811 185.657 117.863 185.837C117.914 186.016 117.908 186.206 117.847 186.382C117.785 186.558 117.67 186.71 117.518 186.818C117.366 186.926 117.184 186.984 116.998 186.984Z" fill="black"/>
<path d="M172.986 150.619C172.747 150.619 172.518 150.525 172.35 150.356C172.181 150.187 172.086 149.958 172.086 149.719V133.326C172.086 133.087 172.181 132.858 172.35 132.69C172.518 132.521 172.747 132.426 172.986 132.426C173.225 132.426 173.454 132.521 173.622 132.69C173.791 132.858 173.886 133.087 173.886 133.326V149.719C173.886 149.958 173.791 150.187 173.622 150.356C173.454 150.525 173.225 150.619 172.986 150.619Z" fill="black"/>
<path d="M169.664 317.641C169.664 313.735 166.496 310.568 162.59 310.568C158.683 310.568 155.516 313.735 155.516 317.641V348.201C155.516 352.108 158.683 355.275 162.59 355.275C166.496 355.275 169.664 352.108 169.664 348.201V317.641Z" fill="#447355"/>
<path d="M169.65 347.08C169.411 347.08 169.182 346.986 169.014 346.817C168.845 346.648 168.75 346.419 168.75 346.18V317.641C168.75 317.403 168.845 317.174 169.014 317.005C169.182 316.836 169.411 316.741 169.65 316.741C169.889 316.741 170.118 316.836 170.286 317.005C170.455 317.174 170.55 317.403 170.55 317.641V346.18C170.55 346.419 170.455 346.648 170.286 346.817C170.118 346.986 169.889 347.08 169.65 347.08Z" fill="black"/>
<path d="M229.878 201.803C229.639 201.808 229.408 201.718 229.235 201.553C229.063 201.388 228.963 201.161 228.957 200.923C228.952 200.684 229.042 200.453 229.207 200.28C229.372 200.108 229.598 200.008 229.837 200.003L276.241 198.108C276.359 198.103 276.477 198.122 276.588 198.163C276.699 198.204 276.801 198.266 276.888 198.346C276.975 198.426 277.045 198.523 277.095 198.63C277.144 198.738 277.172 198.854 277.177 198.972C277.182 199.09 277.163 199.208 277.122 199.319C277.081 199.43 277.019 199.532 276.939 199.619C276.859 199.706 276.762 199.776 276.655 199.826C276.547 199.875 276.431 199.903 276.313 199.908L229.914 201.807L229.878 201.803Z" fill="black"/>
<path d="M246.272 298.372H220.951C220.712 298.372 220.483 298.278 220.314 298.109C220.146 297.94 220.051 297.711 220.051 297.472C220.051 297.234 220.146 297.005 220.314 296.836C220.483 296.667 220.712 296.572 220.951 296.572H244.994L262.49 248.485C262.572 248.261 262.74 248.078 262.956 247.978C263.173 247.877 263.42 247.866 263.645 247.948C263.869 248.029 264.052 248.197 264.152 248.414C264.253 248.63 264.264 248.878 264.182 249.102L246.272 298.372Z" fill="black"/>
<path d="M234.155 99.4513C232.845 99.209 231.587 100.073 231.345 101.382C231.102 102.691 231.968 103.948 233.278 104.19L246.686 106.67C247.995 106.913 249.254 106.048 249.496 104.74C249.738 103.431 248.872 102.174 247.562 101.931L234.155 99.4513Z" fill="black"/>
<path d="M365.887 109.98H329.707C323.852 109.98 319.105 114.727 319.105 120.582V156.762C319.105 162.617 323.852 167.364 329.707 167.364H365.887C371.743 167.364 376.489 162.617 376.489 156.762V120.582C376.489 114.727 371.743 109.98 365.887 109.98Z" fill="white"/>
<path d="M365.885 168.264H329.705C326.655 168.259 323.732 167.045 321.576 164.888C319.42 162.731 318.207 159.807 318.203 156.757V120.6C318.207 117.551 319.42 114.627 321.576 112.471C323.732 110.315 326.656 109.102 329.705 109.098H365.885C368.935 109.102 371.858 110.315 374.014 112.471C376.171 114.627 377.384 117.551 377.387 120.6V156.775C377.379 159.822 376.164 162.742 374.008 164.895C371.853 167.048 368.932 168.259 365.885 168.264ZM329.705 110.88C328.43 110.881 327.167 111.134 325.99 111.623C324.812 112.112 323.742 112.828 322.841 113.731C321.94 114.633 321.226 115.704 320.739 116.883C320.252 118.062 320.002 119.325 320.003 120.6V156.775C320.006 159.348 321.028 161.815 322.847 163.635C324.666 165.454 327.132 166.478 329.705 166.482H365.885C368.458 166.478 370.924 165.454 372.743 163.635C374.562 161.815 375.585 159.348 375.587 156.775V120.6C375.585 118.028 374.562 115.561 372.743 113.742C370.924 111.923 368.458 110.9 365.885 110.898L329.705 110.88Z" fill="black"/>
<path d="M360.699 127.494H334.901C332.733 127.494 330.977 129.251 330.977 131.418V153.274C330.977 155.442 332.733 157.198 334.901 157.198H360.699C362.866 157.198 364.623 155.442 364.623 153.274V131.418C364.623 129.251 362.866 127.494 360.699 127.494Z" fill="#FFC1EB"/>
<path d="M364.616 138.11H330.974C330.736 138.11 330.507 138.015 330.338 137.846C330.169 137.677 330.074 137.448 330.074 137.21C330.074 136.971 330.169 136.742 330.338 136.573C330.507 136.404 330.736 136.31 330.974 136.31H364.616C364.855 136.31 365.084 136.404 365.253 136.573C365.421 136.742 365.516 136.971 365.516 137.21C365.516 137.448 365.421 137.677 365.253 137.846C365.084 138.015 364.855 138.11 364.616 138.11Z" fill="#FB6D6D"/>
<path d="M349.199 128.394H347.804C339.515 128.394 337.139 125.51 336.608 123.089C336.508 122.645 336.506 122.186 336.6 121.742C336.695 121.297 336.884 120.879 337.156 120.515C337.427 120.151 337.774 119.849 338.173 119.632C338.571 119.414 339.012 119.286 339.466 119.255C344.821 118.886 348.466 126.783 348.623 127.121L349.199 128.394ZM339.808 121.05H339.578C339.386 121.064 339.199 121.119 339.03 121.211C338.86 121.304 338.713 121.431 338.597 121.586C338.479 121.743 338.397 121.925 338.355 122.117C338.313 122.31 338.313 122.509 338.354 122.702C338.858 124.974 341.657 126.324 346.292 126.558C345.001 124.308 342.521 121.05 339.808 121.05Z" fill="#FB6D6D"/>
<path d="M347.685 128.394H346.285L346.861 127.12C347.014 126.783 350.659 118.881 356.019 119.254C356.472 119.285 356.914 119.413 357.313 119.631C357.712 119.848 358.06 120.149 358.332 120.513C358.604 120.877 358.793 121.296 358.888 121.741C358.983 122.185 358.98 122.645 358.881 123.088C358.345 125.509 355.951 128.394 347.685 128.394ZM355.672 121.05C352.972 121.05 350.479 124.317 349.183 126.567C353.823 126.333 356.622 124.983 357.121 122.71C357.165 122.518 357.165 122.318 357.123 122.126C357.081 121.933 356.998 121.751 356.878 121.594C356.764 121.439 356.616 121.311 356.447 121.218C356.277 121.126 356.09 121.071 355.897 121.059L355.672 121.05Z" fill="#FB6D6D"/>
<path d="M356.761 144.198C356.603 144.198 356.448 144.156 356.312 144.077C356.175 143.998 356.062 143.885 355.983 143.748L347.599 129.294L339.612 143.221C339.492 143.429 339.296 143.58 339.065 143.642C338.834 143.704 338.588 143.672 338.381 143.552C338.174 143.433 338.023 143.236 337.961 143.005C337.899 142.775 337.931 142.529 338.05 142.321L347.59 125.671L357.54 142.826C357.659 143.031 357.692 143.276 357.631 143.507C357.571 143.737 357.421 143.934 357.216 144.054C357.08 144.142 356.923 144.192 356.761 144.198Z" fill="#FB6D6D"/>
<path d="M347.939 158.098C347.7 158.098 347.471 158.004 347.303 157.835C347.134 157.666 347.039 157.437 347.039 157.198V128.439C347.039 128.2 347.134 127.971 347.303 127.803C347.471 127.634 347.7 127.539 347.939 127.539C348.178 127.539 348.407 127.634 348.575 127.803C348.744 127.971 348.839 128.2 348.839 128.439V157.198C348.839 157.437 348.744 157.666 348.575 157.835C348.407 158.004 348.178 158.098 347.939 158.098Z" fill="#FB6D6D"/>
<path d="M109.62 172.44H61.2498C54.2363 172.44 48.5508 178.126 48.5508 185.139C48.5508 192.152 54.2363 197.838 61.2498 197.838H109.62C116.634 197.838 122.319 192.152 122.319 185.139C122.319 178.126 116.634 172.44 109.62 172.44Z" fill="white"/>
<path d="M109.617 198.738H61.2513C57.6447 198.738 54.1857 197.305 51.6354 194.755C49.0851 192.205 47.6523 188.746 47.6523 185.139C47.6523 181.532 49.0851 178.073 51.6354 175.523C54.1857 172.973 57.6447 171.54 61.2513 171.54H109.617C113.224 171.54 116.683 172.973 119.233 175.523C121.784 178.073 123.216 181.532 123.216 185.139C123.216 188.746 121.784 192.205 119.233 194.755C116.683 197.305 113.224 198.738 109.617 198.738ZM61.2513 173.34C58.1221 173.34 55.1209 174.583 52.9082 176.796C50.6955 179.009 49.4523 182.01 49.4523 185.139C49.4523 188.268 50.6955 191.269 52.9082 193.482C55.1209 195.695 58.1221 196.938 61.2513 196.938H109.617C112.747 196.938 115.748 195.695 117.96 193.482C120.173 191.269 121.416 188.268 121.416 185.139C121.416 182.01 120.173 179.009 117.96 176.796C115.748 174.583 112.747 173.34 109.617 173.34H61.2513Z" fill="black"/>
<path d="M65.3347 189.274C67.6187 189.274 69.4702 187.423 69.4702 185.139C69.4702 182.855 67.6187 181.004 65.3347 181.004C63.0507 181.004 61.1992 182.855 61.1992 185.139C61.1992 187.423 63.0507 189.274 65.3347 189.274Z" fill="#447355"/>
<path d="M85.4324 189.274C87.7163 189.274 89.5679 187.423 89.5679 185.139C89.5679 182.855 87.7163 181.004 85.4324 181.004C83.1484 181.004 81.2969 182.855 81.2969 185.139C81.2969 187.423 83.1484 189.274 85.4324 189.274Z" fill="#447355"/>
<path d="M105.53 189.274C107.814 189.274 109.666 187.423 109.666 185.139C109.666 182.855 107.814 181.004 105.53 181.004C103.246 181.004 101.395 182.855 101.395 185.139C101.395 187.423 103.246 189.274 105.53 189.274Z" fill="#447355"/>
<path d="M387.327 226.372H299.555C291.199 226.372 284.426 233.146 284.426 241.501V337.59C284.426 345.946 291.199 352.719 299.555 352.719H387.327C395.683 352.719 402.456 345.946 402.456 337.59V241.501C402.456 233.146 395.683 226.372 387.327 226.372Z" fill="white"/>
<path d="M387.329 353.619H299.556C295.307 353.614 291.232 351.924 288.227 348.919C285.222 345.914 283.532 341.84 283.527 337.59V241.501C283.532 237.252 285.222 233.178 288.227 230.173C291.232 227.168 295.307 225.477 299.556 225.472H387.329C391.579 225.477 395.653 227.168 398.658 230.173C401.663 233.178 403.353 237.252 403.358 241.501V337.59C403.353 341.84 401.663 345.914 398.658 348.919C395.653 351.924 391.579 353.614 387.329 353.619ZM299.556 227.272C295.784 227.277 292.168 228.778 289.5 231.445C286.833 234.113 285.332 237.729 285.327 241.501V337.59C285.331 341.363 286.831 344.98 289.499 347.647C292.167 350.315 295.784 351.815 299.556 351.819H387.329C391.101 351.814 394.718 350.314 397.385 347.646C400.052 344.979 401.553 341.362 401.558 337.59V241.501C401.553 237.729 400.052 234.113 397.385 231.445C394.718 228.778 391.101 227.277 387.329 227.272H299.556Z" fill="black"/>
<path d="M313.941 273.888H302.201C298.793 273.888 296.031 276.65 296.031 280.057V291.798C296.031 295.205 298.793 297.968 302.201 297.968H313.941C317.349 297.968 320.111 295.205 320.111 291.798V280.057C320.111 276.65 317.349 273.888 313.941 273.888Z" fill="#C7B8F8"/>
<path d="M313.941 310.446H302.201C298.793 310.446 296.031 313.208 296.031 316.616V328.356C296.031 331.763 298.793 334.526 302.201 334.526H313.941C317.349 334.526 320.111 331.763 320.111 328.356V316.616C320.111 313.208 317.349 310.446 313.941 310.446Z" fill="#C7B8F8"/>
<path d="M389.298 280.071H334.947C334.708 280.071 334.479 279.976 334.31 279.807C334.142 279.639 334.047 279.41 334.047 279.171C334.047 278.932 334.142 278.703 334.31 278.535C334.479 278.366 334.708 278.271 334.947 278.271H389.298C389.537 278.271 389.765 278.366 389.934 278.535C390.103 278.703 390.198 278.932 390.198 279.171C390.198 279.41 390.103 279.639 389.934 279.807C389.765 279.976 389.537 280.071 389.298 280.071Z" fill="black"/>
<path d="M368.449 293.328H334.947C334.708 293.328 334.479 293.233 334.31 293.064C334.142 292.896 334.047 292.667 334.047 292.428C334.047 292.189 334.142 291.96 334.31 291.792C334.479 291.623 334.708 291.528 334.947 291.528H368.449C368.688 291.528 368.917 291.623 369.086 291.792C369.255 291.96 369.349 292.189 369.349 292.428C369.349 292.667 369.255 292.896 369.086 293.064C368.917 293.233 368.688 293.328 368.449 293.328Z" fill="black"/>
<path d="M389.298 316.755H334.947C334.708 316.755 334.479 316.66 334.31 316.491C334.142 316.323 334.047 316.094 334.047 315.855C334.047 315.616 334.142 315.387 334.31 315.219C334.479 315.05 334.708 314.955 334.947 314.955H389.298C389.537 314.955 389.765 315.05 389.934 315.219C390.103 315.387 390.198 315.616 390.198 315.855C390.198 316.094 390.103 316.323 389.934 316.491C389.765 316.66 389.537 316.755 389.298 316.755Z" fill="black"/>
<path d="M368.449 330.012H334.947C334.708 330.012 334.479 329.917 334.31 329.748C334.142 329.58 334.047 329.351 334.047 329.112C334.047 328.873 334.142 328.644 334.31 328.476C334.479 328.307 334.708 328.212 334.947 328.212H368.449C368.688 328.212 368.917 328.307 369.086 328.476C369.255 328.644 369.349 328.873 369.349 329.112C369.349 329.351 369.255 329.58 369.086 329.748C368.917 329.917 368.688 330.012 368.449 330.012Z" fill="black"/>
<path d="M307.77 239.63H308.377C310.294 239.63 312.132 240.391 313.488 241.746C314.843 243.102 315.604 244.94 315.604 246.857V254.7H300.543V246.857C300.543 244.94 301.304 243.102 302.66 241.746C304.015 240.391 305.853 239.63 307.77 239.63Z" fill="#FFBB45"/>
<path d="M316.648 253.238H299.499C298.147 253.238 297.051 254.334 297.051 255.686V255.888C297.051 257.24 298.147 258.336 299.499 258.336H316.648C318 258.336 319.096 257.24 319.096 255.888V255.686C319.096 254.334 318 253.238 316.648 253.238Z" fill="#FFBB45"/>
<path d="M308.074 261.351C309.739 261.351 311.089 260.001 311.089 258.336C311.089 256.671 309.739 255.321 308.074 255.321C306.408 255.321 305.059 256.671 305.059 258.336C305.059 260.001 306.408 261.351 308.074 261.351Z" fill="#FFBB45"/>
<path d="M307.988 236.313H308.159C308.694 236.313 309.207 236.525 309.585 236.903C309.963 237.282 310.175 237.794 310.175 238.329V242.753H305.977V238.329C305.977 237.795 306.188 237.283 306.565 236.905C306.943 236.527 307.454 236.314 307.988 236.313Z" fill="#FFBB45"/>
</svg>
